<svg xmlns="http://www.w3.org/2000/svg" viewBox="0 0 612.33 534.29">
    <defs>
        <style>.cls-1{fill:#00FF5A;}.cls-2{fill:#d1d1cf;}</style>
    </defs>
    <title>Asset 2</title><g id="Layer_2" data-name="Layer 2"><g id="Layer_1-2" data-name="Layer 1"><g id="cubes"><g id="green-cube"><path class="cls-1" d="M175.12,447.16l-.56-.28L87.81,402.93a1.22,1.22,0,0,1-.53-1.63,1.19,1.19,0,0,1,1.62-.51l86.21,43.66,86.21-43.66a1.21,1.21,0,0,1,1.63.51,1.22,1.22,0,0,1-.53,1.63Z"/><path class="cls-1" d="M175.12,355.1l-.56.28L87.81,399.33a1.22,1.22,0,0,0-.53,1.63,1.19,1.19,0,0,0,1.62.52l86.21-43.66,86.21,43.66A1.21,1.21,0,0,0,263,401a1.22,1.22,0,0,0-.53-1.63Z"/><path class="cls-1" d="M175.12,534.18a1.13,1.13,0,0,1-1.14-1.13V445.8a1.13,1.13,0,1,1,2.26,0v87.25A1.13,1.13,0,0,1,175.12,534.18Z"/><path class="cls-1" d="M177.26,534.29a1.21,1.21,0,0,1-.55-2.29l6-3.06a1.21,1.21,0,0,1,1.09,2.16l-6,3A1.41,1.41,0,0,1,177.26,534.29Zm-6-.89a1.09,1.09,0,0,1-.55-.13l-5.94-3,1.07-2.17,6,3a1.2,1.2,0,0,1-.54,2.27Zm18.06-5.22a1.17,1.17,0,0,1-1.07-.65,1.19,1.19,0,0,1,.52-1.62l6-3a1.18,1.18,0,0,1,1.63.52,1.2,1.2,0,0,1-.54,1.61l-6,3.06A1.31,1.31,0,0,1,189.3,528.18Zm-30.12-.88a1.19,1.19,0,0,1-.53-.13l-6-3.05a1.21,1.21,0,0,1,1.09-2.15l6,3a1.22,1.22,0,0,1,.53,1.63A1.17,1.17,0,0,1,159.18,527.31Zm42.16-5.23a1.15,1.15,0,0,1-1.06-.66,1.17,1.17,0,0,1,.52-1.61l6-3.05a1.18,1.18,0,0,1,1.62.52,1.21,1.21,0,0,1-.53,1.63l-6,3A1.22,1.22,0,0,1,201.35,522.08Zm-54.2-.87a1.22,1.22,0,0,1-.54-.13l-6-3.05a1.21,1.21,0,1,1,1.09-2.15l6,3.06a1.21,1.21,0,0,1-.55,2.28ZM213.39,516a1.21,1.21,0,0,1-.54-2.28l6-3a1.19,1.19,0,0,1,1.62.53,1.23,1.23,0,0,1-.53,1.62l-6,3A1.2,1.2,0,0,1,213.39,516Zm-78.29-.89a1,1,0,0,1-.53-.13l-6-3.05a1.2,1.2,0,0,1-.52-1.62,1.21,1.21,0,0,1,1.62-.53l6,3a1.23,1.23,0,0,1,.53,1.63A1.19,1.19,0,0,1,135.1,515.1Zm90.34-5.22a1.21,1.21,0,0,1-1.07-.65,1.19,1.19,0,0,1,.52-1.61l6-3.07A1.2,1.2,0,0,1,232,506.7l-6,3.05A1.14,1.14,0,0,1,225.44,509.88ZM123.07,509a1.13,1.13,0,0,1-.54-.13l-6-3.06a1.2,1.2,0,1,1,1.09-2.13l6,3.05a1.2,1.2,0,0,1-.54,2.27Zm114.42-5.21a1.21,1.21,0,0,1-.56-2.28l6-3a1.2,1.2,0,0,1,1.63.53,1.22,1.22,0,0,1-.53,1.62l-6,3.06A1.44,1.44,0,0,1,237.49,503.79ZM111,502.91a1.21,1.21,0,0,1-.55-.13l-6-3.05a1.2,1.2,0,1,1,1.09-2.14l6,3.05a1.19,1.19,0,0,1,.53,1.62A1.17,1.17,0,0,1,111,502.91Zm138.49-5.22a1.21,1.21,0,0,1-.55-2.28l6-3.06a1.19,1.19,0,0,1,1.61.53,1.21,1.21,0,0,1-.52,1.63l-6,3A1.3,1.3,0,0,1,249.52,497.69ZM99,496.8a1.21,1.21,0,0,1-.54-.13l-6-3a1.2,1.2,0,0,1,1.09-2.14l6,3a1.21,1.21,0,0,1,.53,1.63A1.19,1.19,0,0,1,99,496.8Zm162.59-5.23a1.23,1.23,0,0,1-1.07-.66,1.16,1.16,0,0,1,.16-1.33v-5.77a1.21,1.21,0,1,1,2.42,0V491l-1,.5A1.21,1.21,0,0,1,261.57,491.58ZM88.36,489.83a1.21,1.21,0,0,1-1.21-1.2v-6.75a1.21,1.21,0,0,1,1.21-1.2,1.19,1.19,0,0,1,1.2,1.2v6.75A1.19,1.19,0,0,1,88.36,489.83Zm173.52-11.56a1.21,1.21,0,0,1-1.21-1.2v-6.75a1.21,1.21,0,0,1,2.42,0v6.75A1.2,1.2,0,0,1,261.88,478.27ZM88.36,476.32a1.21,1.21,0,0,1-1.21-1.21v-6.74a1.22,1.22,0,0,1,1.21-1.21,1.2,1.2,0,0,1,1.2,1.21v6.74A1.2,1.2,0,0,1,88.36,476.32Zm173.52-11.56a1.2,1.2,0,0,1-1.21-1.2v-6.75a1.21,1.21,0,1,1,2.42,0v6.75A1.2,1.2,0,0,1,261.88,464.76ZM88.36,462.83a1.2,1.2,0,0,1-1.21-1.2v-6.76a1.21,1.21,0,0,1,1.21-1.2,1.2,1.2,0,0,1,1.2,1.2v6.76A1.19,1.19,0,0,1,88.36,462.83Zm173.52-11.56a1.21,1.21,0,0,1-1.21-1.2v-6.75a1.21,1.21,0,0,1,2.42,0v6.75A1.2,1.2,0,0,1,261.88,451.26ZM88.36,449.33a1.21,1.21,0,0,1-1.21-1.2v-6.76a1.22,1.22,0,0,1,1.21-1.21,1.2,1.2,0,0,1,1.2,1.21v6.76A1.2,1.2,0,0,1,88.36,449.33Zm173.52-11.56a1.21,1.21,0,0,1-1.21-1.2V429.8a1.21,1.21,0,0,1,2.42,0v6.77A1.2,1.2,0,0,1,261.88,437.77ZM88.36,435.82a1.2,1.2,0,0,1-1.21-1.2v-6.76a1.21,1.21,0,0,1,1.21-1.2,1.19,1.19,0,0,1,1.2,1.2v6.76A1.19,1.19,0,0,1,88.36,435.82Zm173.52-11.56a1.2,1.2,0,0,1-1.21-1.19v-6.76a1.21,1.21,0,0,1,2.42,0v6.76A1.2,1.2,0,0,1,261.88,424.26ZM88.36,422.32a1.21,1.21,0,0,1-1.21-1.2v-6.75a1.21,1.21,0,0,1,1.21-1.2,1.19,1.19,0,0,1,1.2,1.2v6.75A1.19,1.19,0,0,1,88.36,422.32Zm173.52-11.56a1.2,1.2,0,0,1-1.21-1.2v-6.75a1.21,1.21,0,0,1,2.42,0v6.75A1.2,1.2,0,0,1,261.88,410.76ZM88.36,408.82a1.21,1.21,0,0,1-1.21-1.2v-4.8a1.21,1.21,0,0,1,1.21-1.2,1.19,1.19,0,0,1,1.2,1.2v4.8A1.19,1.19,0,0,1,88.36,408.82Z"/></g><path class="cls-2" d="M88,313.84l-.55-.28L.66,269.6A1.21,1.21,0,0,1,.13,268a1.2,1.2,0,0,1,1.63-.51L88,311.12l86.22-43.66a1.2,1.2,0,1,1,1.09,2.14Z"/><path class="cls-2" d="M88,221.78l-.55.28L.66,266a1.21,1.21,0,0,0-.53,1.63,1.2,1.2,0,0,0,1.63.52L88,224.49l86.22,43.66a1.2,1.2,0,1,0,1.09-2.14Z"/><path class="cls-2" d="M88,400.86a1.13,1.13,0,0,1-1.13-1.13V312.48a1.13,1.13,0,1,1,2.26,0v87.26A1.12,1.12,0,0,1,88,400.86Z"/><path class="cls-2" d="M90.1,401a1.21,1.21,0,0,1-.55-2.29l6-3.06a1.19,1.19,0,0,1,1.62.53,1.21,1.21,0,0,1-.52,1.63l-6,3A1.34,1.34,0,0,1,90.1,401Zm-6-.88a1,1,0,0,1-.54-.14l-5.94-3,1.06-2.17,6,3a1.2,1.2,0,0,1-.55,2.27Zm18.07-5.23a1.17,1.17,0,0,1-1.07-.66,1.19,1.19,0,0,1,.52-1.62l6-3a1.18,1.18,0,0,1,1.63.52,1.21,1.21,0,0,1-.54,1.62l-6,3.05A1.49,1.49,0,0,1,102.15,394.87ZM72,394a1.1,1.1,0,0,1-.53-.13l-6-3a1.21,1.21,0,0,1,1.1-2.15l6,3a1.2,1.2,0,0,1,.53,1.62A1.15,1.15,0,0,1,72,394Zm42.15-5.22a1.21,1.21,0,0,1-.54-2.28l6-3a1.17,1.17,0,0,1,1.61.52,1.21,1.21,0,0,1-.53,1.63l-6,3A1.39,1.39,0,0,1,114.19,388.77ZM60,387.89a1.17,1.17,0,0,1-.54-.13l-6-3a1.2,1.2,0,1,1,1.08-2.15l6,3.05a1.21,1.21,0,0,1,.51,1.63A1.16,1.16,0,0,1,60,387.89Zm66.24-5.22a1.2,1.2,0,0,1-.54-2.28l6-3.05a1.2,1.2,0,0,1,1.62.53,1.22,1.22,0,0,1-.53,1.62l-6,3A1.17,1.17,0,0,1,126.24,382.67ZM48,381.79a1.07,1.07,0,0,1-.54-.13l-6-3a1.21,1.21,0,0,1,1.09-2.15l6,3.05a1.22,1.22,0,0,1,.53,1.62A1.16,1.16,0,0,1,48,381.79Zm90.33-5.22a1.2,1.2,0,0,1-.55-2.27l6-3.06a1.2,1.2,0,1,1,1.08,2.15l-6,3.06A1.24,1.24,0,0,1,138.28,376.56Zm-102.36-.88a1.17,1.17,0,0,1-.54-.13l-6-3.06a1.2,1.2,0,1,1,1.09-2.14l6,3a1.21,1.21,0,0,1-.54,2.28Zm114.42-5.22a1.22,1.22,0,0,1-1.09-.66,1.21,1.21,0,0,1,.53-1.62l6-3a1.2,1.2,0,0,1,1.62.52,1.22,1.22,0,0,1-.54,1.63l-6,3.05A1.33,1.33,0,0,1,150.34,370.47Zm-126.46-.88a1.18,1.18,0,0,1-.54-.13l-6-3.05a1.2,1.2,0,1,1,1.09-2.14l6,3.05a1.19,1.19,0,0,1,.53,1.61A1.17,1.17,0,0,1,23.87,369.59Zm138.49-5.22a1.2,1.2,0,0,1-1.06-.66,1.21,1.21,0,0,1,.52-1.62l6-3.06a1.21,1.21,0,0,1,1.09,2.16l-6,3.06A1.31,1.31,0,0,1,162.36,364.37Zm-150.54-.89a1.24,1.24,0,0,1-.55-.13l-6-3a1.21,1.21,0,0,1,1.09-2.15l6,3.05a1.2,1.2,0,0,1,.53,1.63A1.19,1.19,0,0,1,11.83,363.49Zm162.6-5.22a1.24,1.24,0,0,1-1.08-.67,1.16,1.16,0,0,1,.17-1.33V350.5a1.21,1.21,0,0,1,2.42,0v7.14l-1,.5A1.15,1.15,0,0,1,174.42,358.26ZM1.2,356.51a1.2,1.2,0,0,1-1.2-1.2v-6.75a1.2,1.2,0,0,1,1.2-1.2,1.19,1.19,0,0,1,1.2,1.2v6.75A1.19,1.19,0,0,1,1.2,356.51Zm173.52-11.57a1.2,1.2,0,0,1-1.21-1.2V337a1.21,1.21,0,0,1,2.42,0v6.75A1.2,1.2,0,0,1,174.72,344.94ZM1.2,343A1.21,1.21,0,0,1,0,341.8v-6.75a1.21,1.21,0,0,1,1.2-1.21,1.2,1.2,0,0,1,1.2,1.21v6.75A1.2,1.2,0,0,1,1.2,343Zm173.52-11.56a1.2,1.2,0,0,1-1.21-1.21V323.5a1.21,1.21,0,1,1,2.42,0v6.74A1.2,1.2,0,0,1,174.72,331.45ZM1.2,329.51a1.2,1.2,0,0,1-1.2-1.2v-6.76a1.21,1.21,0,0,1,1.2-1.21,1.2,1.2,0,0,1,1.2,1.21v6.76A1.19,1.19,0,0,1,1.2,329.51Zm173.52-11.56a1.2,1.2,0,0,1-1.21-1.2V310a1.21,1.21,0,1,1,2.42,0v6.75A1.2,1.2,0,0,1,174.72,317.94ZM1.2,316a1.21,1.21,0,0,1-1.2-1.2V308a1.21,1.21,0,0,1,1.2-1.21A1.2,1.2,0,0,1,2.41,308v6.76A1.2,1.2,0,0,1,1.2,316Zm173.52-11.56a1.2,1.2,0,0,1-1.21-1.2v-6.78a1.21,1.21,0,0,1,2.42,0v6.78A1.21,1.21,0,0,1,174.72,304.45ZM1.2,302.51a1.2,1.2,0,0,1-1.2-1.2v-6.76a1.21,1.21,0,0,1,1.2-1.2,1.2,1.2,0,0,1,1.2,1.2v6.76A1.19,1.19,0,0,1,1.2,302.51Zm173.52-11.56a1.2,1.2,0,0,1-1.21-1.19V283a1.21,1.21,0,0,1,2.42,0v6.76A1.2,1.2,0,0,1,174.72,290.94ZM1.2,289A1.2,1.2,0,0,1,0,287.8v-6.74a1.2,1.2,0,0,1,1.2-1.2,1.19,1.19,0,0,1,1.2,1.2v6.74A1.19,1.19,0,0,1,1.2,289Zm173.52-11.56a1.2,1.2,0,0,1-1.21-1.2v-6.75a1.21,1.21,0,0,1,2.42,0v6.75A1.21,1.21,0,0,1,174.72,277.44ZM1.2,275.5A1.2,1.2,0,0,1,0,274.3v-4.8a1.2,1.2,0,0,1,1.2-1.2,1.19,1.19,0,0,1,1.2,1.2v4.8A1.19,1.19,0,0,1,1.2,275.5Z"/><path class="cls-2" d="M262.27,313.8l-.55-.28-86.76-44a1.21,1.21,0,0,1-.53-1.63,1.19,1.19,0,0,1,1.62-.51l86.21,43.66,86.21-43.66a1.2,1.2,0,0,1,1.62.51,1.21,1.21,0,0,1-.52,1.63Z"/><path class="cls-2" d="M262.27,221.75l-.55.28L175,266a1.21,1.21,0,0,0-.53,1.63,1.19,1.19,0,0,0,1.62.52l86.21-43.66,86.21,43.66a1.2,1.2,0,1,0,1.09-2.14Z"/><path class="cls-2" d="M262.27,400.83a1.13,1.13,0,0,1-1.14-1.13V312.44a1.13,1.13,0,1,1,2.26,0v87.25A1.12,1.12,0,0,1,262.27,400.83Z"/><path class="cls-2" d="M264.41,400.94a1.21,1.21,0,0,1-.55-2.29l6-3.06a1.21,1.21,0,0,1,1.09,2.16l-6,3.05A1.32,1.32,0,0,1,264.41,400.94Zm-6-.89a1.08,1.08,0,0,1-.55-.13l-5.94-3,1.07-2.17,6,3a1.2,1.2,0,0,1-.55,2.27Zm18.06-5.22a1.17,1.17,0,0,1-1.07-.66,1.19,1.19,0,0,1,.52-1.62l6-3a1.17,1.17,0,0,1,1.62.52,1.2,1.2,0,0,1-.53,1.62l-6,3.06A1.35,1.35,0,0,1,276.45,394.83ZM246.34,394a1.16,1.16,0,0,1-.53-.13l-6-3.05a1.19,1.19,0,0,1-.52-1.61,1.2,1.2,0,0,1,1.61-.53l6,3a1.21,1.21,0,0,1,.53,1.62A1.18,1.18,0,0,1,246.34,394Zm42.16-5.22a1.16,1.16,0,0,1-1.06-.67,1.18,1.18,0,0,1,.52-1.61l6-3.05a1.18,1.18,0,0,1,1.61.52,1.21,1.21,0,0,1-.53,1.63l-6,3A1.27,1.27,0,0,1,288.5,388.73Zm-54.19-.87a1.12,1.12,0,0,1-.54-.13l-6-3a1.21,1.21,0,1,1,1.09-2.15l6,3.05a1.2,1.2,0,0,1,.52,1.62A1.18,1.18,0,0,1,234.3,387.86Zm66.24-5.22a1.2,1.2,0,0,1-.54-2.27l6-3.05a1.2,1.2,0,0,1,1.62.52,1.23,1.23,0,0,1-.53,1.62l-6,3A1.2,1.2,0,0,1,300.54,382.64Zm-78.29-.88a1,1,0,0,1-.53-.13l-6-3a1.21,1.21,0,0,1,1.09-2.15l6,3.05a1.23,1.23,0,0,1,.53,1.62A1.18,1.18,0,0,1,222.25,381.75Zm90.33-5.22a1.2,1.2,0,0,1-.54-2.27l6-3.06a1.2,1.2,0,1,1,1.09,2.14l-6,3.06A1.3,1.3,0,0,1,312.58,376.53Zm-102.36-.88a1.14,1.14,0,0,1-.54-.13l-6-3.06a1.19,1.19,0,0,1-.52-1.61,1.17,1.17,0,0,1,1.62-.52l6,3a1.2,1.2,0,0,1-.54,2.28Zm114.41-5.21a1.21,1.21,0,0,1-.55-2.28l6-3a1.19,1.19,0,0,1,1.62.53,1.22,1.22,0,0,1-.54,1.63l-6,3.05A1.35,1.35,0,0,1,324.64,370.44Zm-126.46-.88a1.21,1.21,0,0,1-.55-.13l-6-3.05a1.2,1.2,0,1,1,1.09-2.14l6,3.05a1.2,1.2,0,0,1,.53,1.62A1.17,1.17,0,0,1,198.18,369.56Zm138.49-5.22a1.21,1.21,0,0,1-.54-2.28l6-3.06a1.18,1.18,0,0,1,1.61.53,1.21,1.21,0,0,1-.53,1.62l-6,3A1.27,1.27,0,0,1,336.67,364.34Zm-150.54-.88a1.2,1.2,0,0,1-.55-.14l-6-3a1.21,1.21,0,0,1,1.09-2.15l6,3a1.21,1.21,0,0,1,.53,1.63A1.2,1.2,0,0,1,186.13,363.45Zm162.59-5.22a1.23,1.23,0,0,1-1.08-.67,1.15,1.15,0,0,1,.17-1.32v-5.78a1.21,1.21,0,0,1,2.42,0v7.15l-1,.5A1.15,1.15,0,0,1,348.73,358.23Zm-173.21-1.75a1.2,1.2,0,0,1-1.21-1.2v-6.75a1.2,1.2,0,0,1,1.21-1.2,1.19,1.19,0,0,1,1.2,1.2v6.75A1.19,1.19,0,0,1,175.51,356.48ZM349,344.91a1.2,1.2,0,0,1-1.21-1.2V337a1.21,1.21,0,1,1,2.42,0v6.75A1.2,1.2,0,0,1,349,344.91ZM175.51,343a1.21,1.21,0,0,1-1.21-1.2V335a1.21,1.21,0,0,1,1.21-1.2,1.2,1.2,0,0,1,1.2,1.2v6.75A1.19,1.19,0,0,1,175.51,343ZM349,331.41a1.2,1.2,0,0,1-1.21-1.2v-6.74a1.21,1.21,0,1,1,2.42,0v6.74A1.21,1.21,0,0,1,349,331.41Zm-173.51-1.93a1.2,1.2,0,0,1-1.21-1.2v-6.76a1.21,1.21,0,0,1,1.21-1.21,1.2,1.2,0,0,1,1.2,1.21v6.76A1.19,1.19,0,0,1,175.51,329.48ZM349,317.91a1.2,1.2,0,0,1-1.21-1.2V310a1.21,1.21,0,1,1,2.42,0v6.75A1.2,1.2,0,0,1,349,317.91ZM175.51,316a1.21,1.21,0,0,1-1.21-1.2V308a1.21,1.21,0,0,1,1.21-1.21,1.2,1.2,0,0,1,1.2,1.21v6.76A1.2,1.2,0,0,1,175.51,316ZM349,304.42a1.2,1.2,0,0,1-1.21-1.2v-6.78a1.21,1.21,0,0,1,2.42,0v6.78A1.21,1.21,0,0,1,349,304.42Zm-173.51-1.95a1.2,1.2,0,0,1-1.21-1.19v-6.76a1.2,1.2,0,0,1,1.21-1.2,1.19,1.19,0,0,1,1.2,1.2v6.76A1.18,1.18,0,0,1,175.51,302.47ZM349,290.91a1.2,1.2,0,0,1-1.21-1.19V283a1.21,1.21,0,0,1,2.42,0v6.76A1.21,1.21,0,0,1,349,290.91ZM175.51,289a1.21,1.21,0,0,1-1.21-1.2V281a1.2,1.2,0,0,1,1.21-1.2,1.19,1.19,0,0,1,1.2,1.2v6.75A1.19,1.19,0,0,1,175.51,289ZM349,277.41a1.2,1.2,0,0,1-1.21-1.2v-6.75a1.21,1.21,0,0,1,2.42,0v6.75A1.21,1.21,0,0,1,349,277.41Zm-173.51-1.94a1.2,1.2,0,0,1-1.21-1.2v-4.8a1.2,1.2,0,0,1,1.21-1.2,1.19,1.19,0,0,1,1.2,1.2v4.8A1.19,1.19,0,0,1,175.51,275.46Z"/><path class="cls-2" d="M436.39,313.8l-.55-.28-86.75-44a1.21,1.21,0,0,1-.52-1.63,1.18,1.18,0,0,1,1.62-.51l86.21,43.66,86.21-43.66a1.21,1.21,0,0,1,1.63.51,1.22,1.22,0,0,1-.53,1.63Z"/><path class="cls-2" d="M436.39,221.75l-.55.28L349.09,266a1.21,1.21,0,0,0-.52,1.63,1.18,1.18,0,0,0,1.62.52l86.21-43.66,86.21,43.66A1.2,1.2,0,1,0,523.7,266Z"/><path class="cls-2" d="M436.39,400.83a1.12,1.12,0,0,1-1.13-1.13V312.44a1.13,1.13,0,1,1,2.26,0v87.25A1.13,1.13,0,0,1,436.39,400.83Z"/><path class="cls-2" d="M438.53,400.94a1.21,1.21,0,0,1-.55-2.29l6-3.06a1.21,1.21,0,0,1,1.09,2.16l-6,3.05A1.31,1.31,0,0,1,438.53,400.94Zm-6-.89a1.12,1.12,0,0,1-.56-.13l-5.94-3,1.07-2.17,6,3a1.2,1.2,0,0,1-.54,2.27Zm18.06-5.22a1.16,1.16,0,0,1-1.07-.66,1.19,1.19,0,0,1,.52-1.62l6-3a1.17,1.17,0,0,1,1.62.52,1.2,1.2,0,0,1-.53,1.62l-6,3.06A1.39,1.39,0,0,1,450.58,394.83ZM420.46,394a1.17,1.17,0,0,1-.53-.13l-6-3.05a1.19,1.19,0,0,1-.52-1.61,1.2,1.2,0,0,1,1.62-.53l6,3a1.21,1.21,0,0,1,.53,1.62A1.17,1.17,0,0,1,420.46,394Zm42.16-5.22a1.17,1.17,0,0,1-1.06-.67,1.18,1.18,0,0,1,.52-1.61l6-3.05a1.18,1.18,0,0,1,1.61.52,1.2,1.2,0,0,1-.52,1.63l-6,3A1.22,1.22,0,0,1,462.62,388.73Zm-54.19-.87a1.15,1.15,0,0,1-.54-.13l-6-3a1.21,1.21,0,1,1,1.09-2.15l6,3.05a1.2,1.2,0,0,1,.52,1.62A1.17,1.17,0,0,1,408.43,387.86Zm66.24-5.22a1.2,1.2,0,0,1-.54-2.27l6-3.05a1.2,1.2,0,0,1,1.62.52,1.22,1.22,0,0,1-.53,1.62l-6,3A1.2,1.2,0,0,1,474.67,382.64Zm-78.3-.88a1.06,1.06,0,0,1-.53-.13l-6-3a1.19,1.19,0,0,1-.52-1.62,1.21,1.21,0,0,1,1.61-.53l6,3.05a1.22,1.22,0,0,1,.53,1.62A1.18,1.18,0,0,1,396.38,381.75Zm90.34-5.22a1.2,1.2,0,0,1-.54-2.27l6-3.06a1.2,1.2,0,1,1,1.08,2.14l-6,3.06A1.33,1.33,0,0,1,486.71,376.53Zm-102.36-.88a1.15,1.15,0,0,1-.55-.13l-6-3.06a1.2,1.2,0,1,1,1.09-2.13l6,3a1.2,1.2,0,0,1-.54,2.28Zm114.41-5.21a1.22,1.22,0,0,1-1.08-.66,1.2,1.2,0,0,1,.53-1.62l6-3a1.2,1.2,0,0,1,1.62.53,1.23,1.23,0,0,1-.53,1.63l-6,3.05A1.4,1.4,0,0,1,498.76,370.44Zm-126.46-.88a1.2,1.2,0,0,1-.55-.13l-6-3.05a1.2,1.2,0,0,1,1.09-2.14l6,3.05a1.19,1.19,0,0,1,.54,1.62A1.17,1.17,0,0,1,372.3,369.56Zm138.5-5.22a1.21,1.21,0,0,1-.54-2.28l6-3.06a1.18,1.18,0,0,1,1.61.53,1.2,1.2,0,0,1-.52,1.62l-6,3A1.23,1.23,0,0,1,510.8,364.34Zm-150.54-.88a1.21,1.21,0,0,1-.55-.14l-6-3a1.2,1.2,0,0,1,1.09-2.15l6,3a1.21,1.21,0,0,1,.53,1.63A1.19,1.19,0,0,1,360.26,363.45Zm162.59-5.22a1.21,1.21,0,0,1-1.07-.67,1.16,1.16,0,0,1,.17-1.32v-5.78a1.21,1.21,0,1,1,2.41,0v7.15l-.95.5A1.15,1.15,0,0,1,522.85,358.23Zm-173.21-1.75a1.21,1.21,0,0,1-1.21-1.2v-6.75a1.21,1.21,0,0,1,1.21-1.2,1.19,1.19,0,0,1,1.2,1.2v6.75A1.19,1.19,0,0,1,349.64,356.48Zm173.52-11.56a1.2,1.2,0,0,1-1.2-1.2V337a1.21,1.21,0,1,1,2.41,0v6.75A1.2,1.2,0,0,1,523.15,344.91ZM349.64,343a1.22,1.22,0,0,1-1.21-1.2V335a1.22,1.22,0,0,1,1.21-1.2,1.2,1.2,0,0,1,1.2,1.2v6.75A1.2,1.2,0,0,1,349.64,343Zm173.52-11.56a1.2,1.2,0,0,1-1.2-1.2v-6.74a1.21,1.21,0,1,1,2.41,0v6.74A1.2,1.2,0,0,1,523.15,331.41Zm-173.52-1.93a1.21,1.21,0,0,1-1.21-1.2v-6.76a1.22,1.22,0,0,1,1.21-1.21,1.2,1.2,0,0,1,1.2,1.21v6.76A1.19,1.19,0,0,1,349.64,329.48Zm173.52-11.57a1.2,1.2,0,0,1-1.2-1.2V310a1.21,1.21,0,1,1,2.41,0v6.75A1.2,1.2,0,0,1,523.15,317.91ZM349.64,316a1.22,1.22,0,0,1-1.21-1.2V308a1.22,1.22,0,0,1,1.21-1.21,1.2,1.2,0,0,1,1.2,1.21v6.76A1.2,1.2,0,0,1,349.64,316Zm173.52-11.56a1.2,1.2,0,0,1-1.2-1.2v-6.78a1.21,1.21,0,0,1,2.41,0v6.78A1.2,1.2,0,0,1,523.15,304.42Zm-173.52-1.95a1.21,1.21,0,0,1-1.21-1.19v-6.76a1.21,1.21,0,0,1,1.21-1.2,1.19,1.19,0,0,1,1.2,1.2v6.76A1.18,1.18,0,0,1,349.64,302.47Zm173.52-11.56a1.2,1.2,0,0,1-1.2-1.19V283a1.21,1.21,0,1,1,2.41,0v6.76A1.2,1.2,0,0,1,523.15,290.91ZM349.64,289a1.21,1.21,0,0,1-1.21-1.2V281a1.21,1.21,0,0,1,1.21-1.2,1.19,1.19,0,0,1,1.2,1.2v6.75A1.19,1.19,0,0,1,349.64,289Zm173.52-11.56a1.2,1.2,0,0,1-1.2-1.2v-6.75a1.21,1.21,0,0,1,2.41,0v6.75A1.21,1.21,0,0,1,523.15,277.41Zm-173.52-1.94a1.21,1.21,0,0,1-1.21-1.2v-4.8a1.21,1.21,0,0,1,1.21-1.2,1.19,1.19,0,0,1,1.2,1.2v4.8A1.19,1.19,0,0,1,349.64,275.46Z"/><path class="cls-2" d="M524.36,180.16l-.55-.29-86.75-43.95a1.2,1.2,0,0,1-.53-1.62,1.19,1.19,0,0,1,1.62-.52l86.2,43.66,86.22-43.66a1.2,1.2,0,1,1,1.09,2.14Z"/><path class="cls-2" d="M524.36,88.1l-.55.28-86.75,44a1.2,1.2,0,0,0-.53,1.63,1.18,1.18,0,0,0,1.62.52l86.2-43.66,86.22,43.66a1.2,1.2,0,0,0,1.62-.52,1.21,1.21,0,0,0-.53-1.63Z"/><path class="cls-2" d="M524.36,267.18a1.13,1.13,0,0,1-1.13-1.13V178.79a1.13,1.13,0,1,1,2.26,0V266A1.12,1.12,0,0,1,524.36,267.18Z"/><path class="cls-2" d="M526.49,267.29a1.19,1.19,0,0,1-1.07-.67A1.21,1.21,0,0,1,526,265l6-3.06a1.21,1.21,0,0,1,1.09,2.16l-6,3.06A1.33,1.33,0,0,1,526.49,267.29Zm-6-.89a1.06,1.06,0,0,1-.55-.13l-5.94-3,1.07-2.18,6,3a1.2,1.2,0,0,1-.54,2.27Zm18.06-5.22a1.17,1.17,0,0,1-1.07-.66,1.19,1.19,0,0,1,.52-1.62l6-3a1.19,1.19,0,0,1,1.62.52,1.2,1.2,0,0,1-.54,1.62l-6,3.06A1.38,1.38,0,0,1,538.55,261.18Zm-30.12-.87a1.22,1.22,0,0,1-.54-.13l-6-3.05A1.2,1.2,0,0,1,503,255l6,3a1.2,1.2,0,0,1,.53,1.62A1.17,1.17,0,0,1,508.43,260.31Zm42.15-5.22a1.17,1.17,0,0,1-1.06-.67,1.18,1.18,0,0,1,.52-1.61l6-3a1.17,1.17,0,0,1,1.61.52,1.21,1.21,0,0,1-.53,1.63l-6,3.05A1.29,1.29,0,0,1,550.59,255.09Zm-54.19-.87a1.16,1.16,0,0,1-.54-.14l-6-3a1.21,1.21,0,1,1,1.09-2.16l6,3.05a1.21,1.21,0,0,1,.52,1.62A1.18,1.18,0,0,1,496.39,254.21ZM562.64,249a1.21,1.21,0,0,1-.54-2.28l6-3a1.18,1.18,0,0,1,1.62.52,1.22,1.22,0,0,1-.53,1.62l-6,3.05A1.19,1.19,0,0,1,562.64,249Zm-78.29-.88a1,1,0,0,1-.54-.14l-6-3a1.21,1.21,0,0,1,1.09-2.15l6,3a1.22,1.22,0,0,1,.53,1.62A1.18,1.18,0,0,1,484.35,248.11Zm90.33-5.23a1.2,1.2,0,0,1-.55-2.27l6-3.06a1.2,1.2,0,0,1,1.09,2.15l-6,3.06A1.25,1.25,0,0,1,574.68,242.88ZM472.31,242a1.12,1.12,0,0,1-.54-.13l-6-3.06a1.2,1.2,0,1,1,1.09-2.14l6,3.05a1.2,1.2,0,0,1,.52,1.61A1.18,1.18,0,0,1,472.31,242Zm114.42-5.21a1.21,1.21,0,0,1-.56-2.28l6-3.05a1.2,1.2,0,0,1,1.62.53,1.23,1.23,0,0,1-.53,1.62l-6,3.06A1.47,1.47,0,0,1,586.73,236.79Zm-126.46-.88a1.25,1.25,0,0,1-.55-.13l-6-3.06a1.2,1.2,0,1,1,1.09-2.14l6,3.05a1.2,1.2,0,0,1,.53,1.62A1.17,1.17,0,0,1,460.27,235.91Zm138.5-5.22a1.21,1.21,0,0,1-.55-2.28l6-3.06a1.19,1.19,0,0,1,1.61.54,1.2,1.2,0,0,1-.53,1.62l-6,3A1.26,1.26,0,0,1,598.77,230.69Zm-150.55-.89a1.26,1.26,0,0,1-.55-.13l-6-3a1.21,1.21,0,0,1,1.09-2.15l6,3a1.21,1.21,0,0,1,.53,1.63A1.19,1.19,0,0,1,448.22,229.8Zm162.59-5.22a1.22,1.22,0,0,1-1.07-.66,1.17,1.17,0,0,1,.16-1.33v-5.78a1.21,1.21,0,0,1,2.42,0V224l-1,.5A1.13,1.13,0,0,1,610.82,224.58ZM437.6,222.83a1.21,1.21,0,0,1-1.21-1.2v-6.75a1.21,1.21,0,0,1,1.21-1.2,1.19,1.19,0,0,1,1.2,1.2v6.75A1.19,1.19,0,0,1,437.6,222.83Zm173.52-11.57a1.2,1.2,0,0,1-1.21-1.2v-6.74a1.21,1.21,0,1,1,2.42,0v6.74A1.2,1.2,0,0,1,611.12,211.26ZM437.6,209.32a1.21,1.21,0,0,1-1.21-1.21v-6.74a1.21,1.21,0,0,1,1.21-1.21,1.2,1.2,0,0,1,1.2,1.21v6.74A1.2,1.2,0,0,1,437.6,209.32Zm173.52-11.57a1.2,1.2,0,0,1-1.21-1.2v-6.74a1.21,1.21,0,1,1,2.42,0v6.74A1.2,1.2,0,0,1,611.12,197.76ZM437.6,195.83a1.2,1.2,0,0,1-1.21-1.2v-6.76a1.22,1.22,0,0,1,1.21-1.21,1.2,1.2,0,0,1,1.2,1.21v6.76A1.19,1.19,0,0,1,437.6,195.83Zm173.52-11.56a1.2,1.2,0,0,1-1.21-1.2v-6.75a1.21,1.21,0,1,1,2.42,0v6.75A1.2,1.2,0,0,1,611.12,184.26ZM437.6,182.33a1.21,1.21,0,0,1-1.21-1.2v-6.76a1.22,1.22,0,0,1,1.21-1.21,1.2,1.2,0,0,1,1.2,1.21v6.76A1.2,1.2,0,0,1,437.6,182.33Zm173.52-11.56a1.21,1.21,0,0,1-1.21-1.2V162.8a1.21,1.21,0,0,1,2.42,0v6.77A1.21,1.21,0,0,1,611.12,170.77ZM437.6,168.82a1.21,1.21,0,0,1-1.21-1.2v-6.76a1.21,1.21,0,0,1,1.21-1.2,1.19,1.19,0,0,1,1.2,1.2v6.76A1.19,1.19,0,0,1,437.6,168.82Zm173.52-11.56a1.21,1.21,0,0,1-1.21-1.2v-6.76a1.21,1.21,0,0,1,2.42,0v6.76A1.21,1.21,0,0,1,611.12,157.26ZM437.6,155.32a1.2,1.2,0,0,1-1.21-1.2v-6.75a1.21,1.21,0,0,1,1.21-1.2,1.19,1.19,0,0,1,1.2,1.2v6.75A1.19,1.19,0,0,1,437.6,155.32Zm173.52-11.56a1.21,1.21,0,0,1-1.21-1.2v-6.75a1.21,1.21,0,1,1,2.42,0v6.75A1.21,1.21,0,0,1,611.12,143.76ZM437.6,141.82a1.21,1.21,0,0,1-1.21-1.2v-4.81a1.21,1.21,0,0,1,1.21-1.21,1.2,1.2,0,0,1,1.2,1.21v4.81A1.19,1.19,0,0,1,437.6,141.82Z"/><path class="cls-2" d="M437.52,46.51l-.55-.28L350.22,2.28a1.2,1.2,0,0,1-.53-1.63,1.18,1.18,0,0,1,1.62-.52l86.21,43.65L523.74.13a1.2,1.2,0,1,1,1.09,2.14Z"/><path class="cls-2" d="M437.52,133.53a1.13,1.13,0,0,1-1.13-1.13V45.15a1.13,1.13,0,1,1,2.26,0V132.4A1.13,1.13,0,0,1,437.52,133.53Z"/><path class="cls-2" d="M439.66,133.65a1.21,1.21,0,0,1-.54-2.29l6-3.06a1.21,1.21,0,0,1,1.09,2.15l-6,3.05A1.28,1.28,0,0,1,439.66,133.65Zm-6-.89a1.06,1.06,0,0,1-.55-.13l-5.94-3,1.07-2.17,6,3a1.2,1.2,0,0,1,.53,1.62A1.18,1.18,0,0,1,433.64,132.76Zm18.06-5.22a1.17,1.17,0,0,1-1.07-.66,1.2,1.2,0,0,1,.52-1.63l6-3a1.19,1.19,0,0,1,1.63.52,1.21,1.21,0,0,1-.54,1.62l-6,3.06A1.38,1.38,0,0,1,451.71,127.54Zm-30.12-.88a1.18,1.18,0,0,1-.53-.13l-6-3.05a1.18,1.18,0,0,1-.52-1.61,1.19,1.19,0,0,1,1.61-.53l6,3.05a1.2,1.2,0,0,1,.52,1.62A1.16,1.16,0,0,1,421.59,126.66Zm42.16-5.22a1.16,1.16,0,0,1-1.06-.67,1.18,1.18,0,0,1,.52-1.62l6-3a1.18,1.18,0,0,1,1.61.52,1.2,1.2,0,0,1-.53,1.63l-6,3.05A1.32,1.32,0,0,1,463.75,121.44Zm-54.19-.87a1.14,1.14,0,0,1-.54-.14l-6-3a1.21,1.21,0,1,1,1.08-2.16l6,3.06a1.21,1.21,0,0,1,.52,1.62A1.18,1.18,0,0,1,409.55,120.57Zm66.24-5.22a1.21,1.21,0,0,1-.54-2.28l6-3a1.18,1.18,0,0,1,1.62.52,1.21,1.21,0,0,1-.53,1.62l-6,3.05A1.19,1.19,0,0,1,475.8,115.35Zm-78.3-.89a1,1,0,0,1-.53-.13l-6-3a1.21,1.21,0,0,1,1.09-2.15l6,3a1.22,1.22,0,0,1,.53,1.62A1.17,1.17,0,0,1,397.5,114.46Zm90.33-5.22a1.2,1.2,0,0,1-.54-2.27l6-3.06a1.2,1.2,0,1,1,1.08,2.14l-6,3.06A1.22,1.22,0,0,1,487.83,109.24Zm-102.36-.88a1.13,1.13,0,0,1-.54-.13l-6-3.06A1.2,1.2,0,1,1,380,103l6,3a1.2,1.2,0,0,1-.54,2.27Zm114.42-5.22a1.2,1.2,0,0,1-.56-2.28l6-3a1.21,1.21,0,1,1,1.09,2.15l-6,3.05A1.4,1.4,0,0,1,499.9,103.14Zm-126.46-.87a1.24,1.24,0,0,1-.55-.14l-6-3.06a1.2,1.2,0,1,1,1.09-2.14l6,3a1.2,1.2,0,0,1,.54,1.62A1.18,1.18,0,0,1,373.43,102.27ZM511.92,97a1.21,1.21,0,0,1-.54-2.28l6-3.06a1.18,1.18,0,0,1,1.61.54,1.2,1.2,0,0,1-.52,1.62l-6,3A1.22,1.22,0,0,1,511.92,97Zm-150.54-.88a1.2,1.2,0,0,1-.55-.14l-6-3a1.21,1.21,0,0,1,1.1-2.15l6,3a1.21,1.21,0,0,1,.53,1.63A1.19,1.19,0,0,1,361.39,96.16ZM524,90.93a1.23,1.23,0,0,1-1.07-.66,1.17,1.17,0,0,1,.16-1.33V83.17a1.21,1.21,0,0,1,2.42,0V90.3l-.94.5A1.23,1.23,0,0,1,524,90.93ZM350.76,89.18a1.21,1.21,0,0,1-1.21-1.2V81.23a1.2,1.2,0,0,1,1.21-1.2,1.19,1.19,0,0,1,1.21,1.2V88A1.2,1.2,0,0,1,350.76,89.18ZM524.28,77.62a1.2,1.2,0,0,1-1.21-1.2V69.67a1.21,1.21,0,0,1,2.42,0v6.75A1.2,1.2,0,0,1,524.28,77.62ZM350.76,75.68a1.21,1.21,0,0,1-1.21-1.2V67.73a1.21,1.21,0,0,1,1.21-1.21A1.2,1.2,0,0,1,352,67.73v6.75A1.2,1.2,0,0,1,350.76,75.68ZM524.28,64.11a1.2,1.2,0,0,1-1.21-1.2V56.17a1.21,1.21,0,0,1,2.42,0v6.75A1.2,1.2,0,0,1,524.28,64.11ZM350.76,62.18a1.2,1.2,0,0,1-1.21-1.2V54.22a1.21,1.21,0,0,1,1.21-1.2,1.2,1.2,0,0,1,1.21,1.2V61A1.19,1.19,0,0,1,350.76,62.18ZM524.28,50.62a1.2,1.2,0,0,1-1.21-1.2V42.66a1.21,1.21,0,1,1,2.42,0v6.75A1.2,1.2,0,0,1,524.28,50.62ZM350.76,48.68a1.22,1.22,0,0,1-1.21-1.2V40.72a1.22,1.22,0,0,1,1.21-1.21A1.2,1.2,0,0,1,352,40.72v6.76A1.2,1.2,0,0,1,350.76,48.68ZM524.28,37.12a1.21,1.21,0,0,1-1.21-1.2V29.15a1.21,1.21,0,0,1,2.42,0v6.77A1.2,1.2,0,0,1,524.28,37.12ZM350.76,35.17a1.21,1.21,0,0,1-1.21-1.2V27.22a1.21,1.21,0,0,1,1.21-1.2,1.19,1.19,0,0,1,1.21,1.2V34A1.19,1.19,0,0,1,350.76,35.17ZM524.28,23.61a1.21,1.21,0,0,1-1.21-1.2V15.66a1.21,1.21,0,0,1,2.42,0v6.76A1.2,1.2,0,0,1,524.28,23.61ZM350.76,21.67a1.2,1.2,0,0,1-1.21-1.2V13.72a1.21,1.21,0,0,1,1.21-1.2,1.19,1.19,0,0,1,1.21,1.2v6.75A1.19,1.19,0,0,1,350.76,21.67ZM524.28,10.11a1.21,1.21,0,0,1-1.21-1.2V2.17a1.21,1.21,0,0,1,2.42,0V8.91A1.2,1.2,0,0,1,524.28,10.11ZM350.76,8.17A1.21,1.21,0,0,1,349.55,7V2.17A1.21,1.21,0,0,1,350.76,1,1.19,1.19,0,0,1,352,2.17V7A1.19,1.19,0,0,1,350.76,8.17Z"/><path class="cls-2" d="M174,180.16l-.55-.29L86.68,135.92a1.2,1.2,0,1,1,1.09-2.14L174,177.44l86.21-43.66a1.2,1.2,0,1,1,1.1,2.14Z"/><path class="cls-2" d="M174,267.18a1.13,1.13,0,0,1-1.13-1.13V178.79a1.13,1.13,0,1,1,2.26,0V266A1.13,1.13,0,0,1,174,267.18Z"/><path class="cls-2" d="M176.12,267.29a1.21,1.21,0,0,1-.54-2.28l6-3.06a1.19,1.19,0,0,1,1.61.53,1.2,1.2,0,0,1-.52,1.62l-6,3.06A1.31,1.31,0,0,1,176.12,267.29Zm-6-.89a1.05,1.05,0,0,1-.55-.13l-5.94-3,1.07-2.18,6,3a1.2,1.2,0,0,1-.54,2.27Zm18.06-5.22a1.18,1.18,0,0,1-1.07-.66,1.2,1.2,0,0,1,.53-1.62l6-3a1.18,1.18,0,0,1,1.62.52,1.2,1.2,0,0,1-.54,1.62l-6,3.06A1.37,1.37,0,0,1,188.17,261.18Zm-30.11-.87a1.14,1.14,0,0,1-.53-.13l-6-3.05a1.2,1.2,0,0,1,1.09-2.14l6,3a1.2,1.2,0,0,1,.53,1.62A1.16,1.16,0,0,1,158.05,260.31Zm42.16-5.22a1.21,1.21,0,0,1-.54-2.28l6-3a1.17,1.17,0,0,1,1.61.52,1.2,1.2,0,0,1-.52,1.63l-6,3.05A1.28,1.28,0,0,1,200.21,255.09Zm-54.2-.87a1.15,1.15,0,0,1-.54-.14l-6-3a1.21,1.21,0,1,1,1.09-2.16l6,3.05a1.21,1.21,0,0,1,.52,1.62A1.17,1.17,0,0,1,146,254.21ZM212.26,249a1.21,1.21,0,0,1-.54-2.28l6-3a1.19,1.19,0,0,1,1.62.52,1.22,1.22,0,0,1-.53,1.62l-6,3.05A1.2,1.2,0,0,1,212.26,249Zm-78.3-.88a1,1,0,0,1-.53-.14l-6-3a1.21,1.21,0,0,1,1.09-2.15l6,3a1.23,1.23,0,0,1,.53,1.62A1.18,1.18,0,0,1,134,248.11Zm90.34-5.23a1.2,1.2,0,0,1-.54-2.27l6-3.06a1.2,1.2,0,0,1,1.09,2.15l-6,3.06A1.24,1.24,0,0,1,224.3,242.88ZM121.94,242a1.14,1.14,0,0,1-.55-.13l-6-3.06a1.2,1.2,0,1,1,1.09-2.14l6,3.05a1.2,1.2,0,0,1-.54,2.27Zm114.41-5.21a1.22,1.22,0,0,1-1.09-.66,1.2,1.2,0,0,1,.53-1.62l6-3.05a1.2,1.2,0,0,1,1.62.53,1.23,1.23,0,0,1-.53,1.62l-6,3.06A1.45,1.45,0,0,1,236.35,236.79Zm-126.46-.88a1.26,1.26,0,0,1-.55-.13l-6-3.06a1.2,1.2,0,1,1,1.09-2.14l6,3.05a1.2,1.2,0,0,1,.53,1.62A1.17,1.17,0,0,1,109.89,235.91Zm138.5-5.22a1.21,1.21,0,0,1-.55-2.28l6-3.06a1.21,1.21,0,0,1,1.09,2.16l-6,3A1.3,1.3,0,0,1,248.39,230.69ZM97.85,229.8a1.24,1.24,0,0,1-.55-.13l-6-3a1.21,1.21,0,0,1,1.1-2.15l6,3a1.21,1.21,0,0,1,.53,1.63A1.18,1.18,0,0,1,97.85,229.8Zm162.59-5.22a1.23,1.23,0,0,1-1.08-.66,1.17,1.17,0,0,1,.17-1.33v-5.78a1.21,1.21,0,1,1,2.41,0V224l-.95.5A1.13,1.13,0,0,1,260.44,224.58ZM87.22,222.83a1.21,1.21,0,0,1-1.2-1.2v-6.75a1.2,1.2,0,0,1,1.2-1.2,1.19,1.19,0,0,1,1.2,1.2v6.75A1.19,1.19,0,0,1,87.22,222.83Zm173.52-11.57a1.2,1.2,0,0,1-1.21-1.2v-6.74a1.21,1.21,0,1,1,2.41,0v6.74A1.2,1.2,0,0,1,260.74,211.26ZM87.22,209.32a1.21,1.21,0,0,1-1.2-1.21v-6.74a1.21,1.21,0,0,1,1.2-1.21,1.2,1.2,0,0,1,1.2,1.21v6.74A1.2,1.2,0,0,1,87.22,209.32Zm173.52-11.57a1.2,1.2,0,0,1-1.21-1.2v-6.74a1.21,1.21,0,1,1,2.41,0v6.74A1.2,1.2,0,0,1,260.74,197.76ZM87.22,195.83a1.2,1.2,0,0,1-1.2-1.2v-6.76a1.21,1.21,0,0,1,1.2-1.21,1.2,1.2,0,0,1,1.2,1.21v6.76A1.19,1.19,0,0,1,87.22,195.83Zm173.52-11.56a1.2,1.2,0,0,1-1.21-1.2v-6.75a1.21,1.21,0,1,1,2.41,0v6.75A1.2,1.2,0,0,1,260.74,184.26ZM87.22,182.33a1.21,1.21,0,0,1-1.2-1.2v-6.76a1.21,1.21,0,0,1,1.2-1.21,1.2,1.2,0,0,1,1.2,1.21v6.76A1.2,1.2,0,0,1,87.22,182.33Zm173.52-11.56a1.2,1.2,0,0,1-1.21-1.2V162.8a1.21,1.21,0,1,1,2.41,0v6.77A1.2,1.2,0,0,1,260.74,170.77ZM87.22,168.82a1.2,1.2,0,0,1-1.2-1.2v-6.76a1.21,1.21,0,0,1,1.2-1.2,1.19,1.19,0,0,1,1.2,1.2v6.76A1.19,1.19,0,0,1,87.22,168.82Zm173.52-11.56a1.2,1.2,0,0,1-1.21-1.2v-6.76a1.21,1.21,0,0,1,2.41,0v6.76A1.21,1.21,0,0,1,260.74,157.26ZM87.22,155.32a1.2,1.2,0,0,1-1.2-1.2v-6.75a1.2,1.2,0,0,1,1.2-1.2,1.19,1.19,0,0,1,1.2,1.2v6.75A1.19,1.19,0,0,1,87.22,155.32Zm173.52-11.56a1.2,1.2,0,0,1-1.21-1.2v-6.75a1.21,1.21,0,1,1,2.41,0v6.75A1.21,1.21,0,0,1,260.74,143.76ZM87.22,141.82a1.2,1.2,0,0,1-1.2-1.2v-4.81a1.21,1.21,0,0,1,1.2-1.21,1.2,1.2,0,0,1,1.2,1.21v4.81A1.19,1.19,0,0,1,87.22,141.82Z"/></g><g id="logo"><polygon class="cls-1" points="115.28 84.66 102.16 84.66 87.61 47.7 101.04 47.7 108.83 71.67 109.06 71.67 116.84 47.7 129.84 47.7 115.28 84.66"/><path class="cls-1" d="M169.16,66a20,20,0,0,1-1.63,8.2,18.46,18.46,0,0,1-4.45,6.23,20.49,20.49,0,0,1-6.53,4,23,23,0,0,1-15.84,0,20,20,0,0,1-6.54-4,18.72,18.72,0,0,1-4.41-6.23,20.12,20.12,0,0,1-1.64-8.2,19.86,19.86,0,0,1,1.64-8.17,18.52,18.52,0,0,1,4.41-6.16,19.05,19.05,0,0,1,6.54-3.86,24.11,24.11,0,0,1,15.84,0,19.52,19.52,0,0,1,6.53,3.86,18.26,18.26,0,0,1,4.45,6.16A19.7,19.7,0,0,1,169.16,66m-11.71,0a10.42,10.42,0,0,0-.61-3.49,9.23,9.23,0,0,0-1.69-3,8.71,8.71,0,0,0-2.75-2.12,9.2,9.2,0,0,0-7.56,0,8.18,8.18,0,0,0-2.72,2.12,9.05,9.05,0,0,0-1.62,3,11.14,11.14,0,0,0,0,7,9.55,9.55,0,0,0,1.66,3.08,8.27,8.27,0,0,0,2.74,2.19,9.12,9.12,0,0,0,7.57,0,8,8,0,0,0,2.74-2.19,9.48,9.48,0,0,0,1.68-3.08,11.15,11.15,0,0,0,.56-3.48"/><path class="cls-1" d="M214,66a20,20,0,0,1-1.63,8.2,18.56,18.56,0,0,1-4.46,6.23,20.46,20.46,0,0,1-6.52,4,23.06,23.06,0,0,1-15.85,0,19.75,19.75,0,0,1-6.52-4,18.54,18.54,0,0,1-4.42-6.23,20.06,20.06,0,0,1-1.64-8.2,19.8,19.8,0,0,1,1.64-8.17A18.34,18.34,0,0,1,179,51.71a18.86,18.86,0,0,1,6.52-3.86,24.14,24.14,0,0,1,15.85,0,19.49,19.49,0,0,1,6.52,3.86,18.36,18.36,0,0,1,4.46,6.16A19.7,19.7,0,0,1,214,66m-11.72,0a10.37,10.37,0,0,0-.6-3.49,9.07,9.07,0,0,0-1.7-3,8.64,8.64,0,0,0-2.75-2.12,9.22,9.22,0,0,0-7.57,0,8.14,8.14,0,0,0-2.71,2.12,8.83,8.83,0,0,0-1.63,3,11.21,11.21,0,0,0,0,7,9.62,9.62,0,0,0,1.66,3.08,8.2,8.2,0,0,0,2.75,2.19,9.11,9.11,0,0,0,7.56,0A8.18,8.18,0,0,0,200,72.6a9.84,9.84,0,0,0,1.68-3.08,11.08,11.08,0,0,0,.55-3.48"/><polygon class="cls-1" points="242.28 84.66 234.35 73.31 226.18 84.66 212.09 84.66 226.85 65.29 213.5 47.7 227.68 47.7 234.57 57.57 241.54 47.7 255.28 47.7 242 65.29 256.61 84.66 242.28 84.66"/><path class="cls-1" d="M291.87,66.62v1.5a10.35,10.35,0,0,1-.08,1.4H265a6.46,6.46,0,0,0,.94,2.82,7.94,7.94,0,0,0,2,2.19A9.53,9.53,0,0,0,270.68,76a9.65,9.65,0,0,0,3.16.52,10.23,10.23,0,0,0,4.89-1.08A9.75,9.75,0,0,0,282,72.64L290.45,78a17.22,17.22,0,0,1-6.86,5.83,22.8,22.8,0,0,1-9.91,2,23.72,23.72,0,0,1-7.86-1.29,19.19,19.19,0,0,1-6.49-3.79,17.65,17.65,0,0,1-4.39-6.12,22.44,22.44,0,0,1,0-16.51,18.39,18.39,0,0,1,4.22-6.23,18.76,18.76,0,0,1,6.31-4,21.52,21.52,0,0,1,7.86-1.41,19.82,19.82,0,0,1,7.49,1.38,16.28,16.28,0,0,1,5.86,4,18.4,18.4,0,0,1,3.82,6.31,24.19,24.19,0,0,1,1.38,8.45M280.66,62a7.34,7.34,0,0,0-1.82-5,6.85,6.85,0,0,0-5.46-2.08,9.41,9.41,0,0,0-3.27.55A8.58,8.58,0,0,0,267.54,57a7.21,7.21,0,0,0-1.78,2.26A6.65,6.65,0,0,0,265,62Z"/><rect class="cls-1" x="294.73" y="28.56" width="12.39" height="56.09"/><rect class="cls-1" x="312.72" y="28.56" width="12.39" height="56.09"/><path class="cls-1" d="M171.49,21.18l-.19-.1L140.62,5.55a.43.43,0,0,1-.18-.58.42.42,0,0,1,.57-.19l30.49,15.44L202,4.78a.43.43,0,0,1,.38.76Z"/><path class="cls-1" d="M171.49,52a.4.4,0,0,1-.41-.4V20.7a.4.4,0,0,1,.41-.4.4.4,0,0,1,.39.4V51.56a.39.39,0,0,1-.39.4"/><path class="cls-1" d="M172.25,52a.43.43,0,0,1-.2-.81l2.13-1.08a.43.43,0,0,1,.39.76L172.44,52a.44.44,0,0,1-.19,0m-2.13-.31a.4.4,0,0,1-.2,0l-2.1-1.06.38-.77,2.11,1.07a.43.43,0,0,1,.19.58.42.42,0,0,1-.38.22m6.38-1.85a.4.4,0,0,1-.37-.23.43.43,0,0,1,.19-.58L178.44,48a.41.41,0,0,1,.57.18.44.44,0,0,1-.19.58L176.7,49.8a.46.46,0,0,1-.19,0m-10.65-.31a.4.4,0,0,1-.19,0l-2.12-1.07a.43.43,0,1,1,.39-.76l2.13,1.08a.44.44,0,0,1,.19.58.43.43,0,0,1-.39.23m14.91-1.84a.4.4,0,0,1-.37-.24.41.41,0,0,1,.18-.57l2.13-1.08a.43.43,0,0,1,.39.76L181,47.63a.4.4,0,0,1-.2.05m-19.16-.31a.35.35,0,0,1-.2,0l-2.12-1.07a.43.43,0,0,1-.19-.58.42.42,0,0,1,.57-.18l2.13,1.08a.43.43,0,0,1,.2.57.42.42,0,0,1-.38.23M185,45.53a.43.43,0,0,1-.19-.81L187,43.64a.41.41,0,0,1,.57.19.44.44,0,0,1-.19.58l-2.13,1.08a.48.48,0,0,1-.2,0m-27.69-.31a.4.4,0,0,1-.18,0L155,44.09a.42.42,0,0,1-.19-.57.43.43,0,0,1,.57-.2l2.13,1.08a.42.42,0,0,1,.18.58.4.4,0,0,1-.38.23m31.95-1.85a.41.41,0,0,1-.37-.23.42.42,0,0,1,.19-.57l2.13-1.08a.42.42,0,1,1,.38.75l-2.12,1.08a.39.39,0,0,1-.2,0m-36.2-.31a.4.4,0,0,1-.19,0l-2.13-1.08a.42.42,0,0,1-.19-.57.41.41,0,0,1,.57-.18l2.13,1.08a.43.43,0,0,1-.2.8m40.46-1.84a.43.43,0,0,1-.39-.23.44.44,0,0,1,.19-.58l2.13-1.07a.42.42,0,0,1,.58.19.44.44,0,0,1-.19.57l-2.13,1.08a.52.52,0,0,1-.19,0m-44.73-.31a.41.41,0,0,1-.19,0l-2.14-1.08a.43.43,0,0,1,.39-.76L149,40.1a.42.42,0,0,1,.19.57.41.41,0,0,1-.38.23m49-1.84a.43.43,0,0,1-.2-.81l2.13-1.09a.43.43,0,1,1,.38.77L198,39a.4.4,0,0,1-.2,0m-53.23-.31a.4.4,0,0,1-.2,0l-2.12-1.07a.43.43,0,1,1,.38-.76l2.13,1.08a.42.42,0,0,1-.19.8m57.5-1.85a.43.43,0,0,1-.38-.23.42.42,0,0,1,.06-.47v-2a.42.42,0,1,1,.85,0v2.52l-.33.17a.4.4,0,0,1-.2,0m-61.26-.62a.42.42,0,0,1-.42-.42V33.47a.42.42,0,1,1,.85,0v2.39a.42.42,0,0,1-.43.42m61.37-4.09a.43.43,0,0,1-.42-.43V29.37a.42.42,0,1,1,.85,0v2.39a.43.43,0,0,1-.43.43M140.8,31.5a.43.43,0,0,1-.42-.43V28.69a.42.42,0,0,1,.85,0v2.39a.43.43,0,0,1-.43.43m61.37-4.09a.42.42,0,0,1-.42-.43V24.6a.42.42,0,1,1,.85,0V27a.42.42,0,0,1-.43.43m-61.37-.68a.42.42,0,0,1-.42-.43V23.91a.42.42,0,1,1,.85,0V26.3a.42.42,0,0,1-.43.43m61.37-4.09a.42.42,0,0,1-.42-.43V19.83a.42.42,0,1,1,.85,0v2.39a.42.42,0,0,1-.43.43M140.8,22a.42.42,0,0,1-.42-.42V19.14a.42.42,0,1,1,.85,0v2.39a.42.42,0,0,1-.43.42m61.37-4.09a.43.43,0,0,1-.42-.43V15a.42.42,0,1,1,.85,0v2.39a.43.43,0,0,1-.43.43m-61.37-.69a.42.42,0,0,1-.42-.42V14.36a.42.42,0,0,1,.85,0v2.39a.42.42,0,0,1-.43.42m61.37-4.08a.43.43,0,0,1-.42-.43V10.28a.42.42,0,1,1,.85,0v2.39a.43.43,0,0,1-.43.43M140.8,12.4a.42.42,0,0,1-.42-.42V9.59a.42.42,0,1,1,.85,0V12a.42.42,0,0,1-.43.42m61.37-4.09a.42.42,0,0,1-.42-.42V5.51a.42.42,0,1,1,.85,0V7.89a.42.42,0,0,1-.43.42M140.8,7.63a.43.43,0,0,1-.42-.43V5.51a.42.42,0,1,1,.85,0V7.2a.43.43,0,0,1-.43.43"/></g></g></g></svg>