<?xml version="1.0" encoding="utf-8"?>
<!-- Generator: Adobe Illustrator 16.0.0, SVG Export Plug-In . SVG Version: 6.00 Build 0)  -->
<!DOCTYPE svg PUBLIC "-//W3C//DTD SVG 1.1//EN" "http://www.w3.org/Graphics/SVG/1.1/DTD/svg11.dtd">
<svg version="1.1" id="Layer_1" xmlns="http://www.w3.org/2000/svg" xmlns:xlink="http://www.w3.org/1999/xlink" x="0px" y="0px"
	 width="26px" height="26px" viewBox="0 0 26 26" enable-background="new 0 0 26 26" xml:space="preserve">
<g>
	<path fill="#FFFFFF" d="M25.338,9.148c-0.093,0-0.186,0.027-0.264,0.078l-0.099,0.016L22,8.268V0.722C22,0.324,21.823,0,21.426,0
		H4.574C4.176,0,4,0.324,4,0.722v7.921L1.703,9.39C1.698,9.392,1.657,9.396,1.652,9.398L1.36,9.224
		C1.283,9.174,1.184,9.148,1.092,9.148C0.885,9.148,0,9.429,0,9.991v14.806C0,25.527,0.472,26,1.204,26h23.593
		C25.674,26,26,25.674,26,24.797V9.991C26,9.503,25.722,9.148,25.338,9.148z M24.023,9.914l-1.875,1.225V9.284L24.023,9.914z M21,1
		v10.768l-7.642,5.113L5,11.437V1H21z M3.852,9.66v1.164l-1.195-0.762L3.852,9.66z M25,24.797c0,0.114,0.014,0.167,0.009,0.211
		C24.965,25.014,24.912,25,24.797,25H1.204C0.999,25,1,25.001,1,24.797V10.182c0-0.009,0.015-0.019,0.029-0.027l12.082,7.705
		c0.16,0.102,0.341,0.102,0.499-0.003L25,10.401V24.797z"/>
	<rect x="13" y="5" fill="#FFFFFF" width="4" height="1"/>
	<rect x="8" y="8" fill="#FFFFFF" width="9" height="1"/>
	<rect x="8" y="11" fill="#FFFFFF" width="9" height="1"/>
</g>
</svg>
