<?xml version="1.0" encoding="utf-8"?>
<!-- Generator: Adobe Illustrator 16.0.0, SVG Export Plug-In . SVG Version: 6.00 Build 0)  -->
<!DOCTYPE svg PUBLIC "-//W3C//DTD SVG 1.1//EN" "http://www.w3.org/Graphics/SVG/1.1/DTD/svg11.dtd">
<svg version="1.1" id="Layer_1" xmlns="http://www.w3.org/2000/svg" xmlns:xlink="http://www.w3.org/1999/xlink" x="0px" y="0px"
	 width="29.833px" height="29.708px" viewBox="0 0 29.833 29.708" enable-background="new 0 0 29.833 29.708" xml:space="preserve">
<g>
	<circle fill="none" stroke="#FFFFFF" stroke-width="0.7007" stroke-miterlimit="10" cx="15" cy="14.902" r="14.5"/>
	<path fill="none" stroke="#FFFFFF" stroke-width="0.7007" stroke-miterlimit="10" d="M15,10.25c-4.563,0-8.63-1.734-11.288-4.444
		C1.704,8.293,0.5,11.457,0.5,14.902c0,8.009,6.492,14.5,14.5,14.5s14.5-6.491,14.5-14.5c0-3.445-1.204-6.608-3.212-9.097
		C23.63,8.515,19.563,10.25,15,10.25z"/>
	<line fill="none" stroke="#FFFFFF" stroke-miterlimit="10" x1="14.5" y1="0.708" x2="14.5" y2="29.708"/>
	<line fill="none" stroke="#FFFFFF" stroke-miterlimit="10" x1="1" y1="15.208" x2="29" y2="15.208"/>
	<path fill="none" stroke="#FFFFFF" stroke-width="0.7007" stroke-miterlimit="10" d="M15,19.099c4.677,0,8.834,1.822,11.485,4.65
		c1.889-2.449,3.015-5.516,3.015-8.848c0-8.008-6.492-14.5-14.5-14.5S0.5,6.894,0.5,14.902c0,3.332,1.126,6.398,3.015,8.848
		C6.166,20.921,10.323,19.099,15,19.099z"/>
	<path fill="none" stroke="#FFFFFF" stroke-width="0.5066" stroke-miterlimit="10" d="M15,0.402c-0.389,0-0.772,0.02-1.154,0.05
		C9.759,3.468,7.04,8.81,7.04,14.902c0,6.093,2.719,11.436,6.806,14.451c0.381,0.029,0.766,0.049,1.154,0.049
		c8.008,0,14.5-6.491,14.5-14.5C29.5,6.894,23.008,0.402,15,0.402z"/>
	<path fill="none" stroke="#FFFFFF" stroke-width="0.5066" stroke-miterlimit="10" d="M0.5,14.902c0,8.009,6.492,14.5,14.5,14.5
		c0.054,0,0.105-0.003,0.159-0.004c4.121-3.007,6.866-8.373,6.866-14.496c0-6.121-2.745-11.488-6.866-14.496
		c-0.054,0-0.105-0.004-0.159-0.004C6.992,0.402,0.5,6.894,0.5,14.902z"/>
</g>
</svg>
