<?xml version="1.0" encoding="utf-8"?>
<!-- Generator: Adobe Illustrator 16.0.0, SVG Export Plug-In . SVG Version: 6.00 Build 0)  -->
<!DOCTYPE svg PUBLIC "-//W3C//DTD SVG 1.1//EN" "http://www.w3.org/Graphics/SVG/1.1/DTD/svg11.dtd">
<svg version="1.1" id="Layer_1" xmlns="http://www.w3.org/2000/svg" xmlns:xlink="http://www.w3.org/1999/xlink" x="0px" y="0px"
	 width="32px" height="28px" viewBox="0 0 32 28" enable-background="new 0 0 32 28" xml:space="preserve">
<path fill="#FFFFFF" d="M31.691,16.281c0-3.012-1.691-5.503-5.691-5.914V6.732V6.565C26,6.495,24.082,0,16.768,0h-0.333
	C9.138,0,6.196,6.677,6.167,6.747l-0.038,3.62C2.732,10.461,0,12.959,0,16.201C0,19.447,3.031,22,6.621,22H7V6.835
	C8,6.083,10.206,1,16.435,1h0.333C23.064,1,25,6.064,25,6.822v3.479v0.964v10.033v0.689c0,2.344-1,3.806-6,3.995V25h-6v3h6v-1.033
	c5-0.2,7.467-1.985,7.592-4.77C29.933,21.791,31.691,19.297,31.691,16.281z M6,21.269c-3-0.236-5.149-2.466-5.149-4.987
	C0.851,13.579,3,11.37,6,11.276V21.269z M18,27h-4v-1h4v0.986V27z M26,21.209v-9.856c3,0.435,4.365,2.477,4.365,4.928
	S29,20.775,26,21.209z"/>
</svg>
